<svg xmlns="http://www.w3.org/2000/svg" xmlns:xlink="http://www.w3.org/1999/xlink" version="1.1" x="0px" y="0px" viewBox="0 0 100 125" style="enable-background:new 0 0 100 100;" xml:space="preserve"><path d="M74.4,59c-3.5-2.3-7.6-4-11.9-5.2c5.9-4,9.7-10.7,9.7-18.4c0-12.3-10-22.2-22.2-22.2s-22.2,10-22.2,22.2  c0,7.6,3.9,14.3,9.7,18.4c-13.3,3.7-24.6,13-24.6,25.4v7.5h7.5h59.2h7.5v-7.5C87.1,71.6,82.5,64.2,74.4,59z M50,20.8  c8.1,0,14.7,6.6,14.7,14.7c0,8.1-6.6,14.7-14.7,14.7c-8.1,0-14.7-6.6-14.7-14.7C35.3,27.4,41.9,20.8,50,20.8z M20.4,79.2  c0-10.8,14.7-19.6,29.6-19.6s29.6,8.8,29.6,19.6H20.4z"/><text x="0" y="115" fill="#000000" font-size="5px" font-weight="bold" font-family="'Helvetica Neue', Helvetica, Arial-Unicode, Arial, Sans-serif">Created by Michal Beno</text><text x="0" y="120" fill="#000000" font-size="5px" font-weight="bold" font-family="'Helvetica Neue', Helvetica, Arial-Unicode, Arial, Sans-serif">from the Noun Project</text></svg>